<svg width="161" height="118" viewBox="0 0 161 118" fill="none" xmlns="http://www.w3.org/2000/svg">
<path d="M80.7 29.9835L43.9479 20.1389C42.4508 19.7318 40.9313 20.6267 40.5324 22.1101C40.1339 23.5963 41.0174 25.1267 42.5036 25.5253L79.2556 35.3699C79.4981 35.434 79.7406 35.4645 79.9776 35.4645C81.21 35.4645 82.3364 34.642 82.6681 33.3987C83.0724 31.9101 82.1886 30.3793 80.7 29.9835Z" fill="#776750"/>
<path d="M88.9218 34.082C89.0251 33.9369 89.1115 33.7781 89.2425 33.6553C89.1143 33.7808 89.0278 33.9369 88.9218 34.082Z" fill="#776750"/>
<path d="M88.6262 34.5195C88.5621 34.6619 88.5452 34.8207 88.5061 34.9767C88.5452 34.8234 88.5621 34.6646 88.6262 34.5195Z" fill="#776750"/>
<path d="M90.1652 33.0781C89.9645 33.1532 89.7999 33.2788 89.627 33.3961C89.7999 33.2815 89.9645 33.156 90.1652 33.0781Z" fill="#776750"/>
<path d="M88.5175 115.713C88.0211 114.255 88.799 112.671 90.2571 112.175L93.9457 110.918V37.6505L92.0722 38.3002C90.6114 38.8074 89.0278 38.0354 88.5257 36.5801C88.4115 36.2484 88.3779 35.9109 88.3892 35.5792C88.3892 35.6097 88.3724 35.6378 88.3724 35.6684V111.227L30.2474 96.3946V20.624L28.8868 21.0703L24.6714 24.862V98.5585C24.6714 99.8327 25.5357 100.942 26.7709 101.26L90.4722 117.515C90.701 117.573 90.9321 117.601 91.1609 117.601C89.9951 117.603 88.9105 116.873 88.5175 115.713Z" fill="#776750"/>
<path d="M91.1551 117.603C91.4644 117.603 91.7683 117.553 92.0585 117.453H92.0558C91.7574 117.556 91.4535 117.603 91.1551 117.603Z" fill="#776750"/>
<path d="M25.8924 16.3584C26.0821 16.2274 26.2714 16.0936 26.4893 16.0127C26.266 16.0933 26.0821 16.2247 25.8924 16.3584Z" fill="#776750"/>
<path d="M142.781 17.2198C142.748 17.1611 142.689 17.1279 142.653 17.0747C142.926 17.4818 143.118 17.9473 143.147 18.4631C143.211 19.701 142.447 20.8356 141.276 21.24L139.09 21.9984L153.624 47.3809L113.772 61.1846L102.633 45.1226C101.755 43.8625 100.015 43.5418 98.7524 44.4229C97.4867 45.2982 97.1742 47.0382 98.0499 48.3039L110.393 66.1028C110.925 66.8666 111.789 67.3016 112.684 67.3016C112.988 67.3016 113.298 67.2542 113.596 67.1482L136.032 59.3753V55.458C136.032 53.9163 137.281 52.6698 138.82 52.6698C140.359 52.6698 141.608 53.9159 141.608 55.458V57.4433L158.626 51.5493C159.41 51.2759 160.034 50.6709 160.324 49.8906C160.614 49.1154 160.544 48.2483 160.132 47.5263L142.781 17.2198Z" fill="#776750"/>
<path d="M141.945 16.3335C142.039 16.4004 142.118 16.4813 142.201 16.5564C142.115 16.481 142.037 16.3973 141.945 16.3335Z" fill="#776750"/>
<path d="M141.05 15.9121C141.134 15.9344 141.206 15.9817 141.287 16.0099C141.203 15.9817 141.134 15.9344 141.05 15.9121Z" fill="#776750"/>
<path d="M136.034 96.565L93.9429 110.918V114.813C93.9429 115.674 93.5443 116.488 92.8638 117.016C92.6186 117.205 92.3452 117.35 92.0582 117.451L139.72 101.196C140.849 100.811 141.607 99.749 141.607 98.5585V57.4429L136.031 59.3749V96.5646L136.034 96.565Z" fill="#776750"/>
<path d="M93.9429 114.815V110.92L90.2544 112.177C88.7963 112.674 88.0184 114.257 88.5147 115.715C88.9105 116.875 89.9923 117.606 91.1523 117.606C91.4507 117.606 91.7546 117.558 92.053 117.455H92.0558C92.3429 117.358 92.6162 117.212 92.8615 117.02C93.5444 116.488 93.9429 115.674 93.9429 114.815Z" fill="#776750"/>
<path d="M138.822 52.6694C137.283 52.6694 136.034 53.9155 136.034 55.4576V59.3749L141.61 57.4429V55.4576C141.61 53.9159 140.361 52.6694 138.822 52.6694Z" fill="#776750"/>
<path d="M142.201 16.5591C142.369 16.7097 142.522 16.8798 142.653 17.0749C142.522 16.8798 142.374 16.7124 142.201 16.5591Z" fill="#776750"/>
<path d="M25.8924 16.3584C25.7947 16.4253 25.6777 16.4558 25.5913 16.534L1.42471 38.2722C0.42934 39.1643 0.209139 40.6447 0.903356 41.7879C1.42196 42.6437 2.33638 43.1317 3.2899 43.1317C3.61334 43.1317 3.94227 43.0731 4.26297 42.9589L19.0425 37.4552C20.4869 36.917 21.2199 35.3139 20.682 33.8699C20.1439 32.4228 18.538 31.6981 17.0967 32.2277L16.0513 32.618L24.6721 24.8643V18.605C24.6656 17.6577 25.1704 16.8602 25.8924 16.3584Z" fill="#776750"/>
<path d="M141.287 16.0098C141.518 16.0907 141.741 16.1909 141.945 16.3332C141.744 16.1936 141.521 16.0931 141.287 16.0098Z" fill="#776750"/>
<path d="M30.2419 18.6052V20.6265L74.5885 6.07297L130.349 19.1266L90.2407 33.0363C90.2129 33.0446 90.1933 33.0699 90.1655 33.0809C90.4749 32.964 90.8038 32.883 91.1527 32.883C92.6917 32.883 93.9409 34.1291 93.9409 35.6712V37.6533L139.088 21.9985L137.939 19.994C137.175 18.6584 137.638 16.9524 138.973 16.1885C139.629 15.8177 140.37 15.7454 141.048 15.9151C141.028 15.9097 141.014 15.8983 140.995 15.8929L75.0958 0.466406C74.5967 0.352189 74.0754 0.374484 73.5904 0.530546L26.5839 15.9566C26.5476 15.968 26.5225 15.9985 26.4862 16.0126C26.7901 15.8983 27.1108 15.8174 27.4537 15.8174C28.9955 15.8174 30.2419 17.0635 30.2419 18.6052Z" fill="#776750"/>
<path d="M88.3837 35.5789C88.3892 35.3669 88.4533 35.1745 88.5065 34.9766C88.4533 35.1776 88.3919 35.3696 88.3837 35.5789Z" fill="#776750"/>
<path d="M88.9218 34.0815C88.8186 34.2266 88.6989 34.3577 88.6262 34.5192C88.7016 34.3577 88.8214 34.2266 88.9218 34.0815Z" fill="#776750"/>
<path d="M30.2419 20.6239V18.6026C30.2419 17.0609 28.9928 15.8145 27.4537 15.8145C27.1108 15.8145 26.7901 15.8954 26.4862 16.0096C26.2687 16.0906 26.079 16.2243 25.8894 16.3554C25.1674 16.8599 24.6656 17.6546 24.6656 18.6026V24.8619L28.8809 21.0701L30.2419 20.6239Z" fill="#776750"/>
<path d="M91.1551 32.8804C90.8039 32.8804 90.4749 32.9613 90.1679 33.0783C89.9673 33.1565 89.7999 33.2789 89.6298 33.3962C89.5015 33.4827 89.3595 33.5496 89.2449 33.6555C89.1139 33.7811 89.0275 33.9371 88.9243 34.0822C88.821 34.2273 88.704 34.3583 88.6286 34.5199C88.5645 34.665 88.5476 34.8238 88.5085 34.9771C88.4557 35.175 88.3943 35.3674 88.3857 35.5794C88.3744 35.9111 88.4053 36.2486 88.5223 36.5802C89.0268 38.0356 90.6104 38.808 92.0688 38.3003L93.9422 37.6507V35.6686C93.9429 34.1265 92.6941 32.8804 91.1551 32.8804Z" fill="#776750"/>
<path d="M138.975 16.1852C137.64 16.949 137.177 18.6554 137.941 19.991L139.09 21.9955L141.276 21.2371C142.447 20.83 143.21 19.6981 143.146 18.4603C143.118 17.9444 142.926 17.4817 142.653 17.0718C142.522 16.8767 142.371 16.7065 142.201 16.556C142.117 16.4778 142.036 16.3972 141.944 16.333C141.741 16.1938 141.518 16.0905 141.287 16.0096C141.206 15.9818 141.136 15.9345 141.05 15.9118C140.372 15.739 139.631 15.8113 138.975 16.1852Z" fill="#776750"/>
</svg>
