<svg width="30" height="30" viewBox="0 0 30 30" fill="none" xmlns="http://www.w3.org/2000/svg">
<path d="M10.5 30H19.5C27 30 30 27 30 19.5V10.5C30 3 27 0 19.5 0H10.5C3 0 0 3 0 10.5V19.5C0 27 3 30 10.5 30Z" fill="white"/>
<path d="M17.0033 6.43746L15.5049 8.02343C15.9742 11.0358 18.4148 13.3402 21.4465 13.6543L22.9533 12.0593C24.5064 10.4187 25.2064 8.5484 22.7892 6.26246C20.383 3.9984 18.5564 4.79684 17.0033 6.43746Z" fill="#141414"/>
<path d="M17.0033 6.43746L8.0236 15.9421C7.68453 16.3031 7.35641 17.014 7.29078 17.5062L6.8861 21.05C6.74391 22.3296 7.66266 23.2047 8.93141 22.9859L12.4533 22.3843C12.9455 22.2968 13.6345 21.9359 13.9736 21.564L21.4465 13.6543M17.0033 6.43746C18.5564 4.79684 20.383 3.9984 22.7892 6.26246C25.2064 8.5484 24.5064 10.4187 22.9533 12.0593L21.4465 13.6543M17.0033 6.43746L15.5049 8.02343C15.9742 11.0358 18.4148 13.3402 21.4465 13.6543M21.4658 13.6562C21.4594 13.6556 21.4529 13.6549 21.4465 13.6543" stroke="#141414" stroke-width="1.5" stroke-miterlimit="10" stroke-linecap="round" stroke-linejoin="round"/>
</svg>
