<svg width="50" height="55" viewBox="0 0 50 55" fill="none" xmlns="http://www.w3.org/2000/svg">
<path d="M22.2619 5.16231C22.251 5.1859 22.2403 5.20924 22.2296 5.2323L22.2296 5.23231L11.4917 28.5254C11.4769 28.5574 11.4621 28.5896 11.4471 28.6219C11.1923 29.174 10.916 29.7728 10.7631 30.2952C10.5915 30.8813 10.4239 31.862 11.0355 32.8174C11.6471 33.7728 12.6079 34.0312 13.212 34.1208C13.7505 34.2006 14.41 34.2003 15.0179 34.2C15.0536 34.2 15.089 34.2 15.1243 34.2H23V48.7211C23 48.7465 23 48.7722 23 48.7981C22.9998 49.1743 22.9996 49.6063 23.036 49.9453C23.0544 50.1168 23.0984 50.4568 23.2564 50.8108C23.4341 51.2093 23.8774 51.8629 24.7678 52.0583L24.7678 52.0583C25.6583 52.2536 26.3344 51.8456 26.6627 51.5582C26.9543 51.3028 27.1367 51.0125 27.2252 50.8644C27.4001 50.5718 27.5808 50.1794 27.7381 49.8377C27.749 49.8141 27.7597 49.7908 27.7704 49.7677L38.5083 26.4746L38.5083 26.4746C38.5108 26.4692 38.5133 26.4638 38.5158 26.4584C38.5281 26.4317 38.5405 26.4049 38.5529 26.378C38.8077 25.826 39.084 25.2272 39.2369 24.7048C39.4085 24.1187 39.5761 23.138 38.9645 22.1826C38.3529 21.2272 37.3921 20.9688 36.788 20.8792C36.2495 20.7994 35.59 20.7997 34.9821 20.8C34.9464 20.8 34.911 20.8 34.8757 20.8H27V6.27893C27 6.25354 27 6.22784 27 6.20186C27.0002 5.82566 27.0004 5.39373 26.964 5.05474C26.9456 4.8832 26.9016 4.54319 26.7436 4.18915C26.5659 3.79069 26.1226 3.1371 25.2322 2.94174C24.3418 2.74638 23.6656 3.15437 23.3373 3.44181C23.0457 3.69721 22.8633 3.98753 22.7748 4.13561C22.5998 4.42824 22.4192 4.82058 22.2619 5.16231ZM22.9995 32.5946C22.9995 32.5948 22.9995 32.595 22.9995 32.5952L22.9995 32.5946ZM26.208 6.18823C26.2172 6.17284 26.2162 6.17641 26.2048 6.19363C26.206 6.1916 26.207 6.18981 26.208 6.18823ZM23.792 48.8118C23.7828 48.8272 23.7838 48.8236 23.7952 48.8064C23.794 48.8084 23.7929 48.8102 23.792 48.8118ZM27.0131 49.5185C27.0129 49.5167 27.0127 49.5146 27.0125 49.5123C27.0157 49.5327 27.015 49.5363 27.0131 49.5185ZM22.9869 5.48151C22.9871 5.48334 22.9873 5.48542 22.9875 5.48775C22.9843 5.46733 22.985 5.46368 22.9869 5.48151ZM25.3913 20.7994C25.3912 20.7994 25.3925 20.7994 25.3952 20.7995C25.395 20.7995 25.3948 20.7995 25.3946 20.7995C25.3926 20.7994 25.3915 20.7994 25.3913 20.7994ZM27.0005 22.4048C27.0007 22.4096 27.0006 22.4101 27.0005 22.4054L27.0005 22.4048Z" stroke="#141414" stroke-width="4"/>
</svg>
