<svg width="50" height="50" viewBox="0 0 50 50" fill="none" xmlns="http://www.w3.org/2000/svg">
<path d="M17.1607 17.3966C17.1607 14.7672 13.7196 14.0703 12.8067 16.5305C10.5983 22.4816 8.98926 27.8054 8.98926 30.6837C8.98926 39.8567 16.3062 47.2929 25.3321 47.2929C34.358 47.2929 41.675 39.8567 41.675 30.6837C41.675 27.5913 39.8177 21.6763 37.3554 15.1932C34.1657 6.79491 32.5708 2.59578 30.6021 2.3696C29.9722 2.29723 29.2849 2.42735 28.7229 2.72541C26.9664 3.65689 26.9664 8.23678 26.9664 17.3966C26.9664 20.1485 24.7713 22.3793 22.0636 22.3793C19.3558 22.3793 17.1607 20.1485 17.1607 17.3966Z" stroke="#141414" stroke-width="3"/>
<path d="M21.5 30.0263C21.5 28.9732 19.605 28.6941 19.1022 29.6794C17.8861 32.0629 17 34.1951 17 35.3479C17 39.0217 21.0294 42 26 42C30.9706 42 35 39.0217 35 35.3479C35 34.1094 33.9772 31.7404 32.6212 29.1438C30.8646 25.7802 29.9864 24.0984 28.9022 24.0079C28.5553 23.9789 28.1768 24.031 27.8673 24.1504C26.9 24.5234 26.9 26.3577 26.9 30.0263C26.9 31.1284 25.6912 32.0219 24.2 32.0219C22.7088 32.0219 21.5 31.1284 21.5 30.0263Z" fill="#D23B3C" stroke="#141414"/>
</svg>
