<svg width="30" height="30" viewBox="0 0 30 30" fill="none" xmlns="http://www.w3.org/2000/svg">
<rect width="30" height="30" rx="10" fill="white"/>
<path d="M17.1361 6.36144L18.1312 6.26194L17.1361 6.36144ZM16.9838 5.54161L16.095 6V6L16.9838 5.54161ZM17.4311 7.81793L18.2261 7.21141L18.2261 7.21141L17.4311 7.81793ZM18.3595 8.20248L18.2261 7.21141L18.3595 8.20248ZM19.5979 7.38113L20.2311 8.15509L20.2311 8.15509L19.5979 7.38113ZM20.2853 6.90918L20.5896 7.86175L20.2853 6.90918ZM20.9872 6.94419L21.3848 6.02663L21.3848 6.02663L20.9872 6.94419ZM21.6243 7.4822L20.9172 8.1893L20.9172 8.18931L21.6243 7.4822ZM22.5178 8.37567L23.2249 7.66856L23.2249 7.66856L22.5178 8.37567ZM23.0558 9.01275L23.9733 8.61517L23.9733 8.61516L23.0558 9.01275ZM23.0908 9.71464L24.0434 10.019L24.0434 10.0189L23.0908 9.71464ZM22.6188 10.4021L21.8449 9.76886L21.8449 9.76886L22.6188 10.4021ZM21.7975 11.6406L20.8064 11.5072L20.8064 11.5072L21.7975 11.6406ZM22.182 12.5689L21.5755 13.364L21.5755 13.364L22.182 12.5689ZM23.6385 12.8639L23.738 11.8688L23.6385 12.8639ZM24.4584 13.0162L24.9168 12.1275L24.9168 12.1275L24.4584 13.0162ZM24.9299 13.5373L25.8599 13.1696L25.8599 13.1696L24.9299 13.5373ZM24.93 16.4626L24 16.095L24 16.095L24.93 16.4626ZM24.4583 16.9838L24.9166 17.8726L24.9166 17.8726L24.4583 16.9838ZM23.6386 17.1361L23.5391 16.1411L23.5065 16.1444L23.4742 16.1497L23.6386 17.1361ZM23.6386 17.1361L23.7381 18.1312L23.7707 18.1279L23.803 18.1225L23.6386 17.1361ZM22.1825 17.4309L21.5762 16.6357L21.5762 16.6357L22.1825 17.4309ZM21.7979 18.3596L20.8068 18.4931V18.4931L21.7979 18.3596ZM22.619 19.5976L21.845 20.2308H21.845L22.619 19.5976ZM23.0908 20.2848L22.1383 20.5892V20.5892L23.0908 20.2848ZM23.0558 20.9869L22.1383 20.5892L22.1383 20.5892L23.0558 20.9869ZM22.5179 21.6238L23.225 22.3309H23.225L22.5179 21.6238ZM21.6243 22.5174L20.9172 21.8102L20.9172 21.8103L21.6243 22.5174ZM20.9873 23.0554L21.3849 23.9729L21.3849 23.9729L20.9873 23.0554ZM20.2854 23.0904L19.981 24.0429L19.981 24.0429L20.2854 23.0904ZM19.5979 22.6184L20.2312 21.8444L20.2226 21.8376L19.5979 22.6184ZM19.5979 22.6184L18.9646 23.3924L18.9732 23.3993L19.5979 22.6184ZM18.3595 21.7971L18.4928 20.806H18.4928L18.3595 21.7971ZM17.4311 22.1816L18.2262 22.7882L18.2262 22.7881L17.4311 22.1816ZM17.1362 23.6383L16.1411 23.5388V23.5388L17.1362 23.6383ZM16.9837 24.4585L16.095 24L16.095 24L16.9837 24.4585ZM16.4628 24.9299L16.095 24L16.095 24L16.4628 24.9299ZM13.5373 24.9299L13.905 24L13.5373 24.9299ZM13.0162 24.4584L13.905 24H13.905L13.0162 24.4584ZM12.8639 23.6385L11.8688 23.7381V23.7381L12.8639 23.6385ZM12.5689 22.182L11.7739 22.7885L11.7739 22.7885L12.5689 22.182ZM11.6406 21.7975L11.5073 20.8064H11.5073L11.6406 21.7975ZM10.4021 22.6189L9.76884 21.8449L9.753 21.8579L9.73771 21.8714L10.4021 22.6189ZM10.4021 22.6189L11.0353 23.3928L11.0511 23.3799L11.0664 23.3663L10.4021 22.6189ZM9.71458 23.0908L10.0189 24.0434H10.0189L9.71458 23.0908ZM9.01272 23.0558L8.61515 23.9734H8.61515L9.01272 23.0558ZM8.37561 22.5178L9.08271 21.8107H9.08271L8.37561 22.5178ZM7.48217 21.6243L6.77506 22.3315L6.77506 22.3315L7.48217 21.6243ZM6.94414 20.9873L7.86171 20.5897L7.86171 20.5897L6.94414 20.9873ZM6.90913 20.2854L7.86171 20.5897L7.86171 20.5897L6.90913 20.2854ZM7.3811 19.5979L8.15506 20.2311H8.15506L7.3811 19.5979ZM8.20247 18.3594L9.19355 18.4928L8.20247 18.3594ZM7.81792 17.4311L8.42445 16.636L8.42445 16.636L7.81792 17.4311ZM6.36143 17.1361L6.26193 18.1312H6.26193L6.36143 17.1361ZM5.54161 16.9838L6 16.095H6L5.54161 16.9838ZM5.07005 16.4627L4.14009 16.8304L4.14009 16.8304L5.07005 16.4627ZM5.07008 13.5372L4.14017 13.1694L4.14017 13.1694L5.07008 13.5372ZM5.54152 13.0163L5.08305 12.1276L5.08305 12.1276L5.54152 13.0163ZM6.36155 12.8638V11.8638H6.31167L6.26205 11.8688L6.36155 12.8638ZM6.36156 12.8638V13.8638H6.41143L6.46106 13.8589L6.36156 12.8638ZM7.81842 12.5688L7.21178 11.7738L7.21177 11.7738L7.81842 12.5688ZM8.20287 11.6407L9.19396 11.5075L9.19396 11.5075L8.20287 11.6407ZM7.38128 10.4018L8.15523 9.76858H8.15523L7.38128 10.4018ZM6.90914 9.71405L7.86175 9.40988L7.86175 9.40988L6.90914 9.71405ZM6.94413 9.01243L6.02651 8.61498L6.02651 8.61498L6.94413 9.01243ZM7.48233 8.37509L8.18944 9.0822H8.18944L7.48233 8.37509ZM8.37565 7.48177L7.66855 6.77466V6.77466L8.37565 7.48177ZM9.01277 6.94373L8.6152 6.02615L8.6152 6.02616L9.01277 6.94373ZM9.71463 6.90872L10.0189 5.95614V5.95614L9.71463 6.90872ZM10.4022 7.38076L11.0354 6.60681V6.60681L10.4022 7.38076ZM11.6404 8.20207L11.7739 7.21101L11.6404 8.20207ZM12.5691 7.81742L11.7739 7.21101L11.7739 7.21101L12.5691 7.81742ZM12.8639 6.36131L13.8589 6.46081V6.46081L12.8639 6.36131ZM13.0162 5.5417L12.1274 5.08341L12.1274 5.08341L13.0162 5.5417ZM13.5374 5.07001L13.905 6L13.905 6L13.5374 5.07001ZM16.4627 5.07005L16.8304 4.1401V4.1401L16.4627 5.07005ZM18.1312 6.26194C18.1108 6.05831 18.0912 5.85693 18.0626 5.6868C18.0324 5.50684 17.9828 5.29705 17.8725 5.08322L16.095 6C16.0721 5.95549 16.0769 5.93878 16.0902 6.01798C16.1052 6.10701 16.1181 6.23089 16.1411 6.46094L18.1312 6.26194ZM18.2261 7.21141C18.2894 7.29433 18.2693 7.33101 18.2342 7.13595C18.2008 6.95045 18.1739 6.68915 18.1312 6.26194L16.1411 6.46094C16.1805 6.85459 16.2152 7.20895 16.2658 7.49017C16.3147 7.76184 16.4009 8.11633 16.636 8.42445L18.2261 7.21141ZM18.2261 7.21141L18.2261 7.21141L16.636 8.42444C17.0718 8.99575 17.7806 9.28935 18.4928 9.19355L18.2261 7.21141ZM18.9646 6.60717C18.6323 6.87905 18.4286 7.04481 18.2738 7.15238C18.1111 7.26548 18.1228 7.22531 18.2261 7.21141L18.4928 9.19355C18.8768 9.14188 19.1885 8.95223 19.4152 8.7947C19.6498 8.63163 19.9249 8.4056 20.2311 8.15509L18.9646 6.60717ZM19.981 5.95661C19.7518 6.02983 19.5684 6.14308 19.4198 6.24897C19.2793 6.34907 19.123 6.47759 18.9646 6.60717L20.2311 8.15509C20.41 8.00869 20.5068 7.93022 20.5803 7.87784C20.6457 7.83124 20.6373 7.84651 20.5896 7.86175L19.981 5.95661ZM21.3848 6.02663C20.9408 5.83421 20.442 5.80934 19.981 5.95661L20.5896 7.86175L20.5896 7.86175L21.3848 6.02663ZM22.3314 6.77509C22.1867 6.6304 22.044 6.48696 21.9142 6.37338C21.7768 6.25323 21.6056 6.12228 21.3848 6.02663L20.5896 7.86175C20.5437 7.84184 20.5369 7.82581 20.5973 7.87869C20.6653 7.93813 20.7537 8.02583 20.9172 8.1893L22.3314 6.77509ZM23.2249 7.66856L22.3314 6.77509L20.9172 8.18931L21.8107 9.08277L23.2249 7.66856ZM23.9733 8.61516C23.8777 8.39441 23.7467 8.22316 23.6266 8.08581C23.513 7.95597 23.3696 7.81326 23.2249 7.66856L21.8106 9.08277C21.9741 9.24626 22.0618 9.33469 22.1213 9.40264C22.1742 9.46308 22.1581 9.45629 22.1382 9.41034L23.9733 8.61516ZM24.0434 10.0189C24.1906 9.55797 24.1658 9.05922 23.9733 8.61517L22.1382 9.41034L22.1382 9.41034L24.0434 10.0189ZM23.3928 11.0353C23.5224 10.877 23.6509 10.7207 23.751 10.5802C23.8569 10.4316 23.9701 10.2481 24.0434 10.019L22.1382 9.41033C22.1535 9.36263 22.1687 9.35427 22.1221 9.41968C22.0697 9.4932 21.9913 9.58992 21.8449 9.76886L23.3928 11.0353ZM22.7885 11.7739C22.7746 11.8772 22.7345 11.8889 22.8476 11.7262C22.9551 11.5714 23.1209 11.3676 23.3928 11.0353L21.8449 9.76886C21.5943 10.0751 21.3683 10.3502 21.2052 10.5848C21.0477 10.8115 20.8581 11.1232 20.8064 11.5072L22.7885 11.7739ZM22.7885 11.7739V11.7739L20.8064 11.5072C20.7106 12.2194 21.0042 12.9282 21.5755 13.364L22.7885 11.7739ZM23.738 11.8688C23.3108 11.8261 23.0495 11.7992 22.864 11.7658C22.6689 11.7307 22.7056 11.7106 22.7885 11.7739L21.5755 13.364C21.8836 13.599 22.2381 13.6853 22.5098 13.7342C22.791 13.7848 23.1454 13.8195 23.539 13.8589L23.738 11.8688ZM24.9168 12.1275C24.703 12.0172 24.4932 11.9676 24.3132 11.9374C24.1431 11.9088 23.9417 11.8892 23.738 11.8688L23.539 13.8589C23.7691 13.8819 23.893 13.8948 23.982 13.9098C24.0612 13.9231 24.0445 13.9279 24 13.905L24.9168 12.1275ZM25.8599 13.1696C25.682 12.7196 25.3469 12.3493 24.9168 12.1275L24 13.905L24 13.905L25.8599 13.1696ZM26 14.3682C26 14.1636 26.0005 13.9613 25.989 13.7891C25.9769 13.607 25.9484 13.3933 25.8599 13.1696L24 13.905C23.9816 13.8584 23.9881 13.8423 23.9935 13.9224C23.9995 14.0125 24 14.137 24 14.3682H26ZM26 15.6319V14.3682H24V15.6319H26ZM25.86 16.8302C25.9484 16.6065 25.9769 16.3929 25.989 16.2108C26.0005 16.0388 26 15.8365 26 15.6319H24C24 15.863 23.9995 15.9875 23.9935 16.0776C23.9881 16.1577 23.9816 16.1416 24 16.095L25.86 16.8302ZM24.9166 17.8726C25.3469 17.6507 25.682 17.2804 25.86 16.8302L24 16.095V16.095L24.9166 17.8726ZM23.7381 18.1312C23.9417 18.1108 24.1431 18.0912 24.3132 18.0626C24.4931 18.0324 24.7028 17.9828 24.9166 17.8726L24 16.095C24.0445 16.0721 24.0612 16.077 23.982 16.0902C23.893 16.1052 23.7691 16.1181 23.5391 16.1411L23.7381 18.1312ZM23.803 18.1225L23.803 18.1225L23.4742 16.1497L23.4742 16.1497L23.803 18.1225ZM22.7889 18.2261C22.706 18.2893 22.6693 18.2692 22.8644 18.2341C23.0498 18.2007 23.311 18.1739 23.7381 18.1312L23.5391 16.1411C23.1456 16.1805 22.7913 16.2151 22.5102 16.2657C22.2386 16.3146 21.8842 16.4008 21.5762 16.6357L22.7889 18.2261ZM22.7889 18.2261L22.7889 18.2261L21.5762 16.6357C21.0046 17.0716 20.7108 17.7807 20.8068 18.4931L22.7889 18.2261ZM23.3929 18.9643C23.1212 18.6322 22.9555 18.4285 22.8479 18.2738C22.7348 18.1111 22.775 18.1228 22.7889 18.2261L20.8068 18.4931C20.8585 18.877 21.0481 19.1886 21.2056 19.4152C21.3686 19.6497 21.5946 19.9247 21.845 20.2308L23.3929 18.9643ZM24.0433 19.9803C23.9701 19.7513 23.8569 19.5679 23.751 19.4193C23.651 19.2789 23.5225 19.1227 23.3929 18.9643L21.845 20.2308C21.9914 20.4097 22.0698 20.5064 22.1222 20.5799C22.1688 20.6453 22.1535 20.6369 22.1383 20.5892L24.0433 19.9803ZM23.9733 21.3846C24.1658 20.9404 24.1907 20.4415 24.0433 19.9803L22.1383 20.5892L22.1383 20.5892L23.9733 21.3846ZM23.225 22.3309C23.3697 22.1862 23.5131 22.0436 23.6266 21.9138C23.7467 21.7765 23.8776 21.6053 23.9733 21.3846L22.1383 20.5892C22.1582 20.5433 22.1742 20.5365 22.1213 20.5969C22.0619 20.6648 21.9742 20.7532 21.8108 20.9167L23.225 22.3309ZM22.3314 23.2245L23.225 22.3309L21.8108 20.9167L20.9172 21.8102L22.3314 23.2245ZM21.3849 23.9729C21.6056 23.8773 21.7769 23.7463 21.9142 23.6262C22.044 23.5126 22.1867 23.3692 22.3314 23.2245L20.9172 21.8103C20.7537 21.9737 20.6653 22.0614 20.5974 22.1209C20.5369 22.1737 20.5437 22.1577 20.5897 22.1378L21.3849 23.9729ZM19.981 24.0429C20.442 24.1902 20.9408 24.1653 21.3849 23.9729L20.5897 22.1378H20.5897L19.981 24.0429ZM18.9647 23.3924C19.1231 23.522 19.2793 23.6505 19.4198 23.7506C19.5684 23.8565 19.7519 23.9697 19.981 24.0429L20.5897 22.1378C20.6374 22.153 20.6457 22.1683 20.5803 22.1217C20.5068 22.0693 20.4101 21.9909 20.2312 21.8445L18.9647 23.3924ZM18.9732 23.3993L18.9732 23.3993L20.2226 21.8376L20.2226 21.8375L18.9732 23.3993ZM18.2262 22.7881C18.1228 22.7742 18.1111 22.7341 18.2738 22.8472C18.4286 22.9547 18.6324 23.1205 18.9647 23.3924L20.2311 21.8445C19.925 21.5939 19.6499 21.3679 19.4152 21.2048C19.1886 21.0473 18.8769 20.8577 18.4928 20.806L18.2262 22.7881ZM18.2262 22.7881H18.2262L18.4928 20.806C17.7807 20.7102 17.0719 21.0038 16.636 21.5751L18.2262 22.7881ZM18.1312 23.7378C18.1739 23.3105 18.2008 23.0492 18.2342 22.8636C18.2693 22.6685 18.2894 22.7052 18.2262 22.7882L16.636 21.5751C16.401 21.8832 16.3147 22.2378 16.2658 22.5094C16.2152 22.7907 16.1805 23.1451 16.1411 23.5388L18.1312 23.7378ZM17.8724 24.917C17.9828 24.7031 18.0324 24.4932 18.0626 24.3132C18.0912 24.143 18.1108 23.9415 18.1312 23.7378L16.1411 23.5388C16.1181 23.769 16.1052 23.8929 16.0902 23.982C16.0769 24.0612 16.072 24.0445 16.095 24L17.8724 24.917ZM16.8306 25.8598C17.2805 25.6819 17.6506 25.3469 17.8724 24.917L16.095 24L16.095 24L16.8306 25.8598ZM15.6316 26C15.8363 26 16.0387 26.0005 16.2109 25.989C16.393 25.9768 16.6068 25.9483 16.8306 25.8598L16.095 24C16.1416 23.9816 16.1577 23.9881 16.0776 23.9935C15.9875 23.9995 15.8629 24 15.6316 24V26ZM14.3682 26H15.6316V24H14.3682V26ZM13.1696 25.8599C13.3933 25.9484 13.607 25.9769 13.7891 25.989C13.9613 26.0005 14.1636 26 14.3682 26V24C14.137 24 14.0125 23.9995 13.9224 23.9935C13.8423 23.9881 13.8584 23.9816 13.905 24L13.1696 25.8599ZM12.1275 24.9168C12.3493 25.3469 12.7196 25.682 13.1696 25.8599L13.905 24L12.1275 24.9168ZM11.8688 23.7381C11.8892 23.9417 11.9088 24.1431 11.9374 24.3132C11.9676 24.4932 12.0172 24.703 12.1275 24.9168L13.905 24C13.9279 24.0445 13.9231 24.0612 13.9098 23.982C13.8948 23.893 13.8819 23.7691 13.8589 23.539L11.8688 23.7381ZM11.7739 22.7885C11.7106 22.7056 11.7307 22.6689 11.7658 22.864C11.7992 23.0495 11.8261 23.3108 11.8688 23.7381L13.8589 23.539C13.8195 23.1454 13.7848 22.791 13.7342 22.5098C13.6853 22.2381 13.599 21.8836 13.364 21.5755L11.7739 22.7885ZM11.7739 22.7885L13.364 21.5755C12.9282 21.0042 12.2194 20.7106 11.5073 20.8064L11.7739 22.7885ZM11.0353 23.3928C11.3676 23.1209 11.5714 22.9551 11.7262 22.8476C11.8889 22.7345 11.8772 22.7746 11.7739 22.7885L11.5073 20.8064C11.1232 20.858 10.8115 21.0477 10.5848 21.2052C10.3502 21.3683 10.075 21.5944 9.76884 21.8449L11.0353 23.3928ZM11.0664 23.3663L11.0664 23.3663L9.73771 21.8714L9.7377 21.8715L11.0664 23.3663ZM10.0189 24.0434C10.2481 23.9702 10.4315 23.8569 10.5801 23.751C10.7206 23.6509 10.8769 23.5224 11.0353 23.3928L9.76883 21.8449C9.58988 21.9913 9.49316 22.0698 9.41963 22.1222C9.35422 22.1688 9.36258 22.1535 9.41029 22.1383L10.0189 24.0434ZM8.61515 23.9734C9.05919 24.1658 9.55791 24.1907 10.0189 24.0434L9.41029 22.1383L9.41029 22.1383L8.61515 23.9734ZM7.6685 23.2249C7.81321 23.3696 7.95592 23.513 8.08577 23.6266C8.22313 23.7468 8.39438 23.8777 8.61515 23.9734L9.41029 22.1383C9.45624 22.1582 9.46304 22.1742 9.40259 22.1213C9.33464 22.0619 9.2462 21.9742 9.08271 21.8107L7.6685 23.2249ZM6.77506 22.3315L7.6685 23.2249L9.08271 21.8107L8.18927 20.9172L6.77506 22.3315ZM6.02657 21.3848C6.12223 21.6056 6.25318 21.7768 6.37333 21.9142C6.48692 22.044 6.63036 22.1868 6.77506 22.3315L8.18928 20.9172C8.02579 20.7538 7.93809 20.6653 7.87864 20.5974C7.82577 20.5369 7.8418 20.5437 7.86171 20.5897L6.02657 21.3848ZM5.95656 19.9811C5.8093 20.4421 5.83417 20.9408 6.02657 21.3848L7.86171 20.5897V20.5897L5.95656 19.9811ZM6.60715 18.9647C6.47756 19.123 6.34903 19.2793 6.24892 19.4198C6.14303 19.5684 6.02977 19.7519 5.95656 19.9811L7.86171 20.5897C7.84647 20.6374 7.83119 20.6457 7.87779 20.5803C7.93018 20.5068 8.00865 20.4101 8.15506 20.2311L6.60715 18.9647ZM7.2114 18.2261C7.2253 18.1228 7.26548 18.1111 7.15237 18.2738C7.0448 18.4286 6.87903 18.6324 6.60715 18.9647L8.15506 20.2311C8.40558 19.9249 8.63162 19.6498 8.79469 19.4152C8.95222 19.1885 9.14188 18.8768 9.19355 18.4928L7.2114 18.2261ZM7.2114 18.2261L7.2114 18.2261L9.19355 18.4928C9.28934 17.7806 8.99575 17.0718 8.42445 16.636L7.2114 18.2261ZM6.26193 18.1312C6.68915 18.1739 6.95044 18.2008 7.13595 18.2342C7.33101 18.2693 7.29432 18.2894 7.2114 18.2261L8.42445 16.636C8.11633 16.4009 7.76184 16.3147 7.49017 16.2658C7.20894 16.2152 6.85458 16.1805 6.46093 16.1411L6.26193 18.1312ZM5.08323 17.8725C5.29705 17.9828 5.50683 18.0324 5.6868 18.0626C5.85693 18.0912 6.05831 18.1108 6.26193 18.1312L6.46094 16.1411C6.23089 16.1181 6.10701 16.1052 6.01798 16.0902C5.93878 16.0769 5.95549 16.0721 6 16.095L5.08323 17.8725ZM4.14009 16.8304C4.31803 17.2804 4.65311 17.6507 5.08323 17.8725L6 16.095H6L4.14009 16.8304ZM4 15.6318C4 15.8364 3.99948 16.0387 4.01098 16.2109C4.02314 16.393 4.05163 16.6066 4.14009 16.8304L6 16.095C6.01841 16.1416 6.01188 16.1577 6.00653 16.0776C6.00052 15.9875 6 15.863 6 15.6318H4ZM4 14.3683V15.6318H6V14.3683H4ZM4.14017 13.1694C4.05166 13.3932 4.02315 13.607 4.01098 13.7891C3.99948 13.9613 4 14.1637 4 14.3683H6C6 14.1371 6.00052 14.0125 6.00654 13.9224C6.01189 13.8423 6.01842 13.8584 6 13.905L4.14017 13.1694ZM5.08305 12.1276C4.65308 12.3494 4.3181 12.7195 4.14017 13.1694L6 13.905L6 13.905L5.08305 12.1276ZM6.26205 11.8688C6.05837 11.8892 5.85694 11.9088 5.68677 11.9374C5.50676 11.9676 5.29692 12.0172 5.08305 12.1276L6 13.905C5.95548 13.928 5.93877 13.9231 6.01798 13.9098C6.10704 13.8948 6.23094 13.8819 6.46105 13.8589L6.26205 11.8688ZM6.36155 11.8638H6.36155V13.8638H6.36155V11.8638ZM6.36156 11.8638H6.36155V13.8638H6.36156V11.8638ZM7.21177 11.7738C7.29471 11.7105 7.33141 11.7307 7.1363 11.7658C6.95075 11.7992 6.68939 11.8261 6.26205 11.8688L6.46106 13.8589C6.85482 13.8195 7.20927 13.7848 7.49056 13.7342C7.76231 13.6853 8.1169 13.5989 8.42506 13.3638L7.21177 11.7738ZM7.21177 11.7738L7.21178 11.7738L8.42506 13.3638C8.99613 12.928 9.28962 12.2194 9.19396 11.5075L7.21177 11.7738ZM6.60732 11.0351C6.87929 11.3675 7.04511 11.5713 7.15272 11.7261C7.26586 11.8889 7.22567 11.8772 7.21177 11.7738L9.19396 11.5075C9.14234 11.1233 8.95263 10.8115 8.79506 10.5848C8.63195 10.3501 8.40584 10.0749 8.15523 9.76858L6.60732 11.0351ZM5.95652 10.0182C6.02973 10.2475 6.14303 10.431 6.24896 10.5797C6.3491 10.7203 6.47768 10.8766 6.60732 11.0351L8.15523 9.76858C8.00876 9.58956 7.93026 9.49279 7.87785 9.41923C7.83123 9.35379 7.84651 9.36215 7.86175 9.40988L5.95652 10.0182ZM6.02651 8.61498C5.83424 9.05887 5.80938 9.5574 5.95652 10.0182L7.86175 9.40988L6.02651 8.61498ZM6.77523 7.66798C6.63047 7.81274 6.48698 7.9555 6.37335 8.08539C6.25316 8.2228 6.12217 8.39412 6.02651 8.61498L7.86175 9.40988C7.84184 9.45585 7.8258 9.46265 7.8787 9.40219C7.93816 9.33421 8.02589 9.24574 8.18944 9.0822L6.77523 7.66798ZM7.66855 6.77466L6.77523 7.66798L8.18944 9.0822L9.08276 8.18888L7.66855 6.77466ZM7.66855 6.77466L7.66855 6.77466L9.08276 8.18888L9.08276 8.18887L7.66855 6.77466ZM8.6152 6.02616C8.39443 6.12181 8.22317 6.25276 8.08582 6.37292C7.95597 6.48651 7.81325 6.62995 7.66855 6.77466L9.08276 8.18887C9.24625 8.02538 9.33469 7.93768 9.40264 7.87824C9.46309 7.82536 9.45629 7.84139 9.41034 7.8613L8.6152 6.02616ZM10.0189 5.95614C9.55795 5.80889 9.05923 5.83377 8.6152 6.02615L9.41033 7.8613H9.41034L10.0189 5.95614ZM11.0354 6.60681C10.877 6.47719 10.7207 6.34865 10.5802 6.24853C10.4316 6.14264 10.2481 6.02936 10.0189 5.95614L9.41034 7.8613C9.36262 7.84606 9.35426 7.83078 9.41969 7.8774C9.49324 7.9298 9.58999 8.00829 9.76896 8.15472L11.0354 6.60681ZM11.7739 7.21101C11.8773 7.22493 11.889 7.26509 11.7262 7.15198C11.5714 7.04441 11.3677 6.87865 11.0354 6.60681L9.76896 8.15472C10.0751 8.40521 10.3502 8.63122 10.5848 8.79427C10.8114 8.95176 11.123 9.14141 11.507 9.19312L11.7739 7.21101ZM11.7739 7.21101L11.7739 7.21101L11.507 9.19312C12.2193 9.28905 12.9284 8.99536 13.3642 8.42382L11.7739 7.21101ZM11.8688 6.2618C11.8261 6.6889 11.7993 6.95012 11.7659 7.13558C11.7308 7.33059 11.7107 7.29392 11.7739 7.21101L13.3642 8.42382C13.5992 8.11576 13.6854 7.76136 13.7343 7.48976C13.7849 7.20861 13.8196 6.85435 13.8589 6.46081L11.8688 6.2618ZM12.1274 5.08341C12.0172 5.29719 11.9676 5.50692 11.9374 5.68683C11.9088 5.85692 11.8892 6.05824 11.8688 6.2618L13.8589 6.46081C13.8819 6.23082 13.8948 6.10698 13.9098 6.01798C13.923 5.9388 13.9279 5.9555 13.905 6L12.1274 5.08341ZM13.1698 4.14002C12.7196 4.31796 12.3492 4.65315 12.1274 5.08341L13.905 6L13.905 6L13.1698 4.14002ZM14.3681 4C14.1635 4 13.9612 3.99948 13.7892 4.01097C13.6071 4.02313 13.3935 4.05161 13.1698 4.14002L13.905 6C13.8584 6.0184 13.8423 6.01188 13.9224 6.00653C14.0125 6.00052 14.137 6 14.3681 6V4ZM15.6318 4H14.3681V6H15.6318V4ZM16.8304 4.1401C16.6066 4.05163 16.393 4.02314 16.2109 4.01098C16.0387 3.99948 15.8364 4 15.6318 4V6C15.863 6 15.9875 6.00052 16.0776 6.00653C16.1577 6.01188 16.1416 6.01841 16.095 6L16.8304 4.1401ZM17.8725 5.08322C17.6507 4.65312 17.2804 4.31803 16.8304 4.1401L16.095 6L16.095 6L17.8725 5.08322ZM18 15C18 16.6569 16.6569 18 15 18V20C17.7614 20 20 17.7614 20 15H18ZM15 12C16.6569 12 18 13.3431 18 15H20C20 12.2386 17.7614 10 15 10V12ZM12 15C12 13.3431 13.3431 12 15 12V10C12.2386 10 10 12.2386 10 15H12ZM15 18C13.3431 18 12 16.6569 12 15H10C10 17.7614 12.2386 20 15 20V18Z" fill="#141414"/>
</svg>
