<svg width="30" height="30" viewBox="0 0 30 30" fill="none" xmlns="http://www.w3.org/2000/svg">
<rect width="30" height="30" rx="10" fill="white"/>
<path fill-rule="evenodd" clip-rule="evenodd" d="M8.30664 19.382C8.64501 19.8989 9.04379 20.3775 9.49667 20.8067C10.6189 21.8703 12.0252 22.586 13.5456 22.8671C15.066 23.1482 16.6353 22.9826 18.0636 22.3905C19.4919 21.7984 20.718 20.8051 21.5936 19.5308C22.4692 18.2564 22.9567 16.7556 22.9972 15.21C23.0378 13.6644 22.6295 12.1401 21.8219 10.8217C21.0143 9.50318 19.8419 8.447 18.4466 7.78088C17.5023 7.33007 16.4832 7.07099 15.4479 7.01292L16.0031 9.08482C16.5482 9.17726 17.0808 9.34507 17.5849 9.58575C18.6314 10.0853 19.5107 10.8775 20.1164 11.8663C20.7221 12.8552 21.0283 13.9984 20.9979 15.1576C20.9675 16.3168 20.6019 17.4424 19.9452 18.3982C19.2885 19.3539 18.3689 20.0989 17.2977 20.543C16.2265 20.9871 15.0495 21.1112 13.9092 20.9004C12.7689 20.6896 11.7141 20.1528 10.8725 19.3551C10.6968 19.1886 10.5319 19.0121 10.3785 18.8269L8.30664 19.382Z" fill="#141414"/>
<path d="M12.6706 6.30667C12.5465 5.84338 12.4844 5.61174 12.2869 5.51053C12.0895 5.40932 11.8798 5.48868 11.4604 5.64739C10.548 5.99272 9.68924 6.47037 8.91239 7.06647C7.87054 7.8659 6.99636 8.86272 6.33975 10C5.68314 11.1373 5.25696 12.3928 5.08555 13.6947C4.95774 14.6656 4.97344 15.6481 5.13061 16.6109C5.20284 17.0535 5.23896 17.2747 5.42535 17.3952C5.61174 17.5156 5.84338 17.4535 6.30667 17.3294L14.0341 15.2588C14.4894 15.1368 14.7171 15.0758 14.8206 14.8964C14.9242 14.7171 14.8632 14.4894 14.7412 14.0341L12.6706 6.30667Z" fill="#141414"/>
</svg>
