<svg width="30" height="30" viewBox="0 0 30 30" fill="none" xmlns="http://www.w3.org/2000/svg">
<path d="M10.5 30H19.5C27 30 30 27 30 19.5V10.5C30 3 27 0 19.5 0H10.5C3 0 0 3 0 10.5V19.5C0 27 3 30 10.5 30Z" fill="white"/>
<path d="M22.5 9.98332C19.725 9.70832 16.9333 9.56665 14.15 9.56665C12.5 9.56665 10.85 9.64998 9.2 9.81665L7.5 9.98332" stroke="#141414" stroke-width="1.5" stroke-linecap="round" stroke-linejoin="round"/>
<path d="M12.0833 9.14169L12.2666 8.05002C12.3999 7.25835 12.4999 6.66669 13.9083 6.66669H16.0916C17.4999 6.66669 17.6083 7.29169 17.7333 8.05835L17.9166 9.14169" stroke="#141414" stroke-width="1.5" stroke-linecap="round" stroke-linejoin="round"/>
<path d="M20.7084 12.6166L20.1667 21.0083C20.0751 22.3166 20.0001 23.3333 17.6751 23.3333H12.3251C10.0001 23.3333 9.92508 22.3166 9.83341 21.0083L9.29175 12.6166" stroke="#141414" stroke-width="1.5" stroke-linecap="round" stroke-linejoin="round"/>
<path d="M13.6084 18.75H16.3834" stroke="#141414" stroke-width="1.5" stroke-linecap="round" stroke-linejoin="round"/>
<path d="M12.9167 15.4167H17.0834" stroke="#141414" stroke-width="1.5" stroke-linecap="round" stroke-linejoin="round"/>
</svg>
